<svg id="Capa_1" enable-background="new 0 0 512 512" height="512" viewBox="0 0 512 512" width="512" xmlns="http://www.w3.org/2000/svg" xmlns:xlink="http://www.w3.org/1999/xlink"><linearGradient id="SVGID_1_" gradientUnits="userSpaceOnUse" x1="0" x2="512" y1="256" y2="256"><stop offset="0" stop-color="#ffdbed" stop-opacity="0"/><stop offset="1" stop-color="#ffdbed"/></linearGradient><path d="m451.798 43.963c-160.556-97.869-410.51-8.611-439.594 61.949-38.908 94.394 26.578 110.528 38.743 187.874 9.761 62.061-51.182 121.495-16.394 176.282 37.883 59.663 163.465 44.681 211.198 16.447 87.376-51.683 43.309-112.012 84.684-187.299 39.407-71.707 116.244-42.625 160.961-99.99 42.5-54.521 14.31-122.402-39.598-155.263z" fill="url(#SVGID_1_)"/><path d="m251 61.13c-113.148 0-204.871 91.723-204.871 204.871s91.723 204.871 204.871 204.871 204.871-91.723 204.871-204.871-91.723-204.871-204.871-204.871zm0 307.323c-56.578 0-102.452-45.874-102.452-102.452s45.874-102.451 102.452-102.451 102.452 45.874 102.452 102.452-45.874 102.451-102.452 102.451z" fill="#6583fe" opacity=".2"/><path d="m251 41.13c-113.148 0-204.871 91.723-204.871 204.871s91.723 204.871 204.871 204.871 204.871-91.723 204.871-204.871-91.723-204.871-204.871-204.871zm0 307.323c-56.578 0-102.452-45.874-102.452-102.452s45.874-102.452 102.452-102.452 102.452 45.874 102.452 102.452-45.874 102.452-102.452 102.452z" fill="#8399fe"/><path d="m251 41.128v102.422c-28.284 0-53.904 11.468-72.439 30.013l-72.429-72.429c37.079-37.079 88.3-60.006 144.868-60.006z" fill="#01eca5"/><path d="m178.561 173.562c-18.544 18.534-30.013 44.155-30.013 72.439h-102.421c0-56.568 22.927-107.789 60.006-144.868z" fill="#02ffb3"/><path d="m178.561 318.44-72.429 72.429c-37.079-37.079-60.006-88.3-60.006-144.868h102.422c0 28.284 11.469 53.905 30.013 72.439z" fill="#97ffd2"/><path d="m251 348.453v102.422c-56.568 0-107.789-22.927-144.868-60.006l72.429-72.429c18.534 18.544 44.155 30.013 72.439 30.013z" fill="#ffa8cf"/><path d="m395.868 390.869c-37.079 37.079-88.3 60.006-144.868 60.006v-102.422c28.284 0 53.905-11.468 72.439-30.013z" fill="#ff7eb8"/><path d="m455.873 246.001c0 56.568-22.927 107.789-60.006 144.868l-72.429-72.429c18.544-18.534 30.013-44.155 30.013-72.439z" fill="#ff5ba8"/><path d="m455.873 246.001h-102.421c0-28.284-11.468-53.905-30.013-72.439l72.429-72.429c37.079 37.079 60.005 88.3 60.005 144.868z" fill="#6583fe"/><g fill="#2626bc"><path d="m251 36.13c-21.371 0-42.46 3.205-62.682 9.525-2.636.824-4.104 3.629-3.281 6.264.824 2.637 3.628 4.105 6.264 3.281 17.676-5.525 36.054-8.542 54.698-9.001v92.471c-25.864 1.191-49.372 11.565-67.326 27.934l-65.408-65.408c14.023-13.342 29.941-24.661 47.337-33.497 2.462-1.251 3.444-4.261 2.193-6.723-1.25-2.462-4.261-3.443-6.722-2.193-34.032 17.289-62.749 43.55-83.046 75.943-20.869 33.305-31.899 71.783-31.899 111.274 0 115.724 94.148 209.871 209.871 209.871s209.871-94.147 209.871-209.871-94.147-209.87-209.87-209.87zm199.871 209.871c0 53.31-20.981 101.811-55.117 137.683l-65.357-65.357c16.37-17.954 26.744-41.462 27.935-67.326h62.668c2.761 0 5-2.238 5-5s-2.239-5-5-5h-62.669c-1.191-25.864-11.565-49.372-27.935-67.326l65.357-65.357c34.137 35.872 55.118 84.373 55.118 137.683zm-399.679 5h92.476c1.191 25.864 11.565 49.372 27.935 67.326l-65.357 65.357c-33.066-34.747-53.787-81.344-55.054-132.683zm199.808-102.451c53.735 0 97.452 43.717 97.452 97.451 0 53.735-43.717 97.452-97.452 97.452s-97.452-43.717-97.452-97.452c0-53.734 43.717-97.451 97.452-97.451zm72.326 18.054c-17.954-16.37-41.462-26.743-67.326-27.934v-92.477c51.339 1.267 97.936 21.988 132.683 55.054zm-144.652 158.794c17.954 16.37 41.462 26.744 67.326 27.935v92.476c-51.339-1.267-97.936-21.988-132.683-55.054zm77.326 27.935c25.864-1.191 49.372-11.565 67.326-27.935l65.357 65.357c-34.747 33.066-81.344 53.787-132.683 55.054zm-174.499-213.297c7.172-11.446 15.452-22.083 24.68-31.783l65.422 65.422c-16.37 17.954-26.744 41.461-27.935 67.326h-92.47c.889-35.853 11.316-70.66 30.303-100.965z"/><path d="m251 220.019c2.761 0 5-2.238 5-5v-11.5c0-2.762-2.239-5-5-5s-5 2.238-5 5v11.5c0 2.761 2.239 5 5 5z"/><path d="m251 183.287c2.761 0 5-2.238 5-5v-11.5c0-2.762-2.239-5-5-5s-5 2.238-5 5v11.5c0 2.762 2.239 5 5 5z"/><path d="m251 308.716c-2.761 0-5 2.238-5 5v11.5c0 2.762 2.239 5 5 5s5-2.238 5-5v-11.5c0-2.762-2.239-5-5-5z"/><path d="m251 271.983c-2.761 0-5 2.238-5 5v11.5c0 2.762 2.239 5 5 5s5-2.238 5-5v-11.5c0-2.761-2.239-5-5-5z"/><path d="m245.25 251.001h.75v.75c0 2.762 2.239 5 5 5s5-2.238 5-5v-.75h.75c2.761 0 5-2.238 5-5s-2.239-5-5-5h-.75v-.75c0-2.762-2.239-5-5-5s-5 2.238-5 5v.75h-.75c-2.761 0-5 2.238-5 5s2.239 5 5 5z"/><path d="m281.982 251.001h11.5c2.761 0 5-2.238 5-5s-2.239-5-5-5h-11.5c-2.761 0-5 2.238-5 5s2.239 5 5 5z"/><path d="m318.714 251.001h11.5c2.761 0 5-2.238 5-5s-2.239-5-5-5h-11.5c-2.761 0-5 2.238-5 5s2.239 5 5 5z"/><path d="m171.786 251.001h11.5c2.761 0 5-2.238 5-5s-2.239-5-5-5h-11.5c-2.761 0-5 2.238-5 5s2.238 5 5 5z"/><path d="m208.518 251.001h11.5c2.761 0 5-2.238 5-5s-2.239-5-5-5h-11.5c-2.761 0-5 2.238-5 5s2.238 5 5 5z"/></g><g fill="#6583fe" opacity=".2"><path d="m251 240.019c2.761 0 5-2.238 5-5v-11.5c0-2.762-2.239-5-5-5s-5 2.238-5 5v11.5c0 2.761 2.239 5 5 5z"/><path d="m251 203.286c2.761 0 5-2.238 5-5v-11.5c0-2.762-2.239-5-5-5s-5 2.238-5 5v11.5c0 2.762 2.239 5 5 5z"/><path d="m251 328.716c-2.761 0-5 2.238-5 5v11.5c0 2.762 2.239 5 5 5s5-2.238 5-5v-11.5c0-2.762-2.239-5-5-5z"/><path d="m251 291.984c-2.761 0-5 2.238-5 5v11.5c0 2.762 2.239 5 5 5s5-2.238 5-5v-11.5c0-2.762-2.239-5-5-5z"/><path d="m256.75 261.001h-.75v-.75c0-2.762-2.239-5-5-5s-5 2.238-5 5v.75h-.75c-2.761 0-5 2.238-5 5s2.239 5 5 5h.75v.75c0 2.762 2.239 5 5 5s5-2.238 5-5v-.75h.75c2.761 0 5-2.238 5-5s-2.239-5-5-5z"/><path d="m293.482 261.001h-11.5c-2.761 0-5 2.238-5 5s2.239 5 5 5h11.5c2.761 0 5-2.238 5-5s-2.238-5-5-5z"/><path d="m330.214 261.001h-11.5c-2.761 0-5 2.238-5 5s2.239 5 5 5h11.5c2.761 0 5-2.238 5-5s-2.238-5-5-5z"/><path d="m183.286 261.001h-11.5c-2.761 0-5 2.238-5 5s2.239 5 5 5h11.5c2.761 0 5-2.238 5-5s-2.239-5-5-5z"/><path d="m220.018 261.001h-11.5c-2.761 0-5 2.238-5 5s2.239 5 5 5h11.5c2.761 0 5-2.238 5-5s-2.239-5-5-5z"/></g><path d="m400.153 466.828c-2.761 0-5-2.238-5-5 0-3.309-2.691-6-6-6-2.761 0-5-2.238-5-5s2.239-5 5-5c3.309 0 6-2.691 6-6 0-2.762 2.239-5 5-5s5 2.238 5 5c0 3.309 2.691 6 6 6 2.761 0 5 2.238 5 5s-2.239 5-5 5c-3.309 0-6 2.691-6 6 0 2.762-2.239 5-5 5z" fill="#6583fe"/><path d="m411.153 77.13c-2.761 0-5-2.238-5-5 0-3.309-2.691-6-6-6-2.761 0-5-2.238-5-5s2.239-5 5-5c3.309 0 6-2.691 6-6 0-2.762 2.239-5 5-5s5 2.238 5 5c0 3.309 2.691 6 6 6 2.761 0 5 2.238 5 5s-2.239 5-5 5c-3.309 0-6 2.691-6 6 0 2.762-2.239 5-5 5z" fill="#ff7eb8"/><path d="m75.655 448.172c-2.761 0-5-2.238-5-5 0-3.309-2.692-6-6-6-2.761 0-5-2.238-5-5s2.239-5 5-5c3.309 0 6-2.691 6-6 0-2.762 2.239-5 5-5s5 2.238 5 5c0 3.309 2.691 6 6 6 2.761 0 5 2.238 5 5s-2.239 5-5 5c-3.308 0-6 2.691-6 6 0 2.762-2.238 5-5 5z" fill="#01eca5"/><path d="m455.873 102.339c-1.28 0-2.559-.488-3.536-1.465-1.953-1.952-1.953-5.118 0-7.07l10-10c1.953-1.953 5.118-1.953 7.071 0 1.953 1.952 1.953 5.118 0 7.07l-10 10c-.976.977-2.255 1.465-3.535 1.465z" fill="#6583fe"/><path d="m92.655 60.13c-1.28 0-2.559-.488-3.536-1.465-1.953-1.952-1.953-5.118 0-7.07l10-10c1.953-1.953 5.118-1.953 7.071 0 1.953 1.952 1.953 5.118 0 7.07l-10 10c-.976.977-2.255 1.465-3.535 1.465z" fill="#6583fe"/></svg>