<svg id="Capa_1" enable-background="new 0 0 512 512" height="512" viewBox="0 0 512 512" width="512" xmlns="http://www.w3.org/2000/svg"><path d="m410.665 126.214c-.008 0-.004 0 0 0" fill="none"/><path d="m512 210.899v280.021l-256 .1-256 .1v-280.221c0-1.02.1-2.03.31-3.01l255.69 40 255.69-39.99c.21.98.31 1.98.31 3z" fill="#ffae3b"/><path d="m512 210.899v280.021l-256 .1v-243.131l255.69-39.99c.21.98.31 1.98.31 3z" fill="#ff7127"/><path d="m512 490.92v6.08c0 8.28-6.72 15-15 15h-482c-8.28 0-15-6.72-15-15v-5.88l156.21-155.521c2.81-2.8 6.61-4.37 10.58-4.37h178.42c3.96 0 7.77 1.57 10.58 4.37z" fill="#ffdd7d"/><path d="m512 490.92v6.08c0 8.28-6.72 15-15 15h-241v-180.771h89.21c3.96 0 7.77 1.57 10.58 4.37z" fill="#ffae3b"/><path d="m511.69 207.899-86.03 76.7h-169.66l-169.67-.01-86.02-76.7c.69-3.39 2.53-6.46 5.27-8.67l80.75-65.18 5.58-4.5c2.66-2.14 5.96-3.31 9.38-3.33h309.38c3.46 0 6.82.2 9.5 2.4l5.49 4.49 80.84 66.19c2.69 2.21 4.51 5.26 5.19 8.61z" fill="#ffdd7d"/><path d="m511.69 207.899-86.03 76.7h-169.66v-158.39h154.67c3.46 0 6.82.2 9.5 2.4l5.49 4.49 80.84 66.19c2.69 2.21 4.51 5.26 5.19 8.61z" fill="#ffae3b"/><path d="m339.91 75.769c-2.13 5.97-7.79 9.95-14.13 9.95h-137.11c-6.36 0-12.02-4-14.14-10s-.23-12.67 4.72-16.67l69.04-55.72c2.28-1.84 4.96-2.91 7.71-3.23 3.92-.45 7.99.64 11.22 3.29l68.06 55.73c4.91 4.01 6.76 10.68 4.63 16.65z" fill="#ffdd7d"/><path d="m325.78 85.719h-69.78v-85.62c3.92-.45 7.99.64 11.22 3.29l68.06 55.73c4.91 4.01 6.76 10.68 4.63 16.65s-7.79 9.95-14.13 9.95z" fill="#ffae3b"/><path d="m425.66 70.719v213.881l-159.68 142.37c-2.84 2.54-6.41 3.8-9.98 3.8s-7.14-1.26-9.98-3.8l-159.69-142.381v-213.87c0-8.28 6.72-15 15-15h309.33c8.29 0 15 6.72 15 15z" fill="#f3eee9"/><path d="m425.66 70.719v213.881l-159.68 142.37c-2.84 2.54-6.41 3.8-9.98 3.8v-375.051h154.66c8.29 0 15 6.72 15 15z" fill="#e9dfda"/><path d="m372.393 130.76v141.78c0 .46-.02.92-.07 1.37l-116.32-22.69-113.94-22.22v-98.24c0-8.28 6.72-15 15-15h200.33c8.28 0 15 6.72 15 15z" fill="#7ed6f4"/><path d="m372.393 130.76v141.78c0 .46-.02.92-.07 1.37l-116.32-22.69v-135.46h101.39c8.28 0 15 6.72 15 15z" fill="#6aa7ff"/><path d="m372.323 273.91c-.69 7.65-7.11 13.63-14.93 13.63h-200.33c-8.28 0-15-6.71-15-15v-43.54l88.3-32.06c4.2-1.52 8.85-1.1 12.71 1.16l12.93 7.58z" fill="#9adb05"/><path d="m320.694 150.157c-8.284 0-15 6.716-15 15v14.746c0 8.284 6.716 15 15 15s15-6.716 15-15v-14.746c0-8.284-6.715-15-15-15z" fill="#ffae3b"/><path d="m372.323 273.91c-.69 7.65-7.11 13.63-14.93 13.63h-101.39v-81.86z" fill="#00ca76"/></svg>