<svg id="Flat" height="512" viewBox="0 0 512 512" width="512" xmlns="http://www.w3.org/2000/svg"><rect fill="#ccc" height="32" rx="16" width="232" x="24" y="440"/><rect fill="#b3b3b3" height="32" rx="16" width="232" x="224" y="440"/><path d="m162.71774 421.65522 27.25926-184a16 16 0 0 1 15.82726-13.65522h263.65074a16 16 0 0 1 15.82726 18.34478l-27.25926 184a16 16 0 0 1 -15.82726 13.65522h-263.65074a16 16 0 0 1 -15.82726-18.34478z" fill="#ccc"/><path d="m162.71774 421.65522 27.25926-184a16 16 0 0 1 15.82726-13.65522h234.19253a16 16 0 0 1 15.82726 18.34478l-27.25926 184a16 16 0 0 1 -15.82726 13.65522h-234.19253a16 16 0 0 1 -15.82726-18.34478z" fill="#3ea7ff"/><path d="m200 120h168a40 40 0 0 1 40 40v184h-208z" fill="#e0b82f"/><path d="m120 120h248a40 40 0 0 0 -40 40v192a40 40 0 0 1 -40 40h-168z" fill="#eacf4d"/><path d="m24 40h224v312a40 40 0 0 0 40 40h-224a40 40 0 0 1 -40-40z" fill="#f2e368"/><path d="m56 72h112v64h-112z" fill="#65dcff"/><path d="m56 168h80v48h-80z" fill="#65dcff"/><g fill="#eacf4d"><path d="m176 160h48v16h-48z"/><path d="m160 192h32v16h-32z"/><path d="m208 192h16v16h-16z"/><path d="m64 240h56v16h-56z"/><path d="m136 240h88v16h-88z"/><path d="m48 272h32v16h-32z"/><path d="m96 272h112v16h-112z"/></g><path d="m96 312h96v48h-96z" fill="#65dcff"/><path d="m80 96h16v16h-16z" fill="#57c1ff"/><path d="m112 96h32v16h-32z" fill="#57c1ff"/><path d="m192 64h32v16h-32z" fill="#eacf4d"/><path d="m192 96h32v16h-32z" fill="#eacf4d"/></svg>