<svg id="Flat" height="512" viewBox="0 0 512 512" width="512" xmlns="http://www.w3.org/2000/svg"><path d="m370.92993 413.9-74.92993-109.9h-136l74.93 109.9a41.71079 41.71079 0 0 1 7.35 26.1 42.642 42.642 0 0 1 -4.16 16 41.858 41.858 0 0 1 -38.12 24h136c33.97 0 54.07007-38.03 34.92993-66.1zm-72.72993 2.1a26.62526 26.62526 0 0 1 -22.16-11.86l-12.04-20.14h40l5.65991 10.57a13.60792 13.60792 0 0 1 2.34009 7.61 13.8005 13.8005 0 0 1 -13.8 13.82z" fill="#ccc"/><path d="m280 440v16h-41.88a42.642 42.642 0 0 0 4.16-16z" fill="#b3b3b3"/><path d="m296 440h16v16h-16z" fill="#b3b3b3"/><path d="m328 440h16v16h-16z" fill="#b3b3b3"/><rect fill="#b3b3b3" height="16" rx="8" width="160" x="192" y="464"/><path d="m440 96h32a16 16 0 0 1 16 16v256a16 16 0 0 1 -16 16h-32z" fill="#ccc"/><rect fill="#e6e6e6" height="288" rx="16" width="432" x="24" y="96"/><rect fill="#65dcff" height="224" rx="16" width="368" x="56" y="128"/><path d="m285.65723 61.65674-11.31446-11.31348 20.68653-20.68652a19.31389 19.31389 0 0 1 32.9707 13.65674v4.68652h-16v-4.68652a3.31353 3.31353 0 0 0 -5.65723-2.34229z" fill="#4d4d4d"/><path d="m194.34277 61.65674-20.68554-20.68653a3.31422 3.31422 0 0 0 -5.65723 2.34327v4.68652h-16v-4.68652a19.31458 19.31458 0 0 1 32.9707-13.65772l20.68653 20.6875z" fill="#4d4d4d"/><g fill="#808080"><path d="m154.34277 141.65674-21.65625-21.65674h-28.68652v-16h32a8.00076 8.00076 0 0 1 5.65723 2.34326l24 24z"/><path d="m85.65723 229.65674-11.31446-11.31348 24-24a8.00076 8.00076 0 0 1 5.65723-2.34326h24v16h-20.68652z"/><path d="m144 320h-16v-32a8.00035 8.00035 0 0 1 2.34277-5.65674l24-24 11.31446 11.31348-21.65723 21.65674z"/><path d="m325.65723 141.65674-11.31446-11.31348 24-24a8.00076 8.00076 0 0 1 5.65723-2.34326h32v16h-28.68652z"/><path d="m394.34277 229.65674-21.65625-21.65674h-20.68652v-16h24a8.00076 8.00076 0 0 1 5.65723 2.34326l24 24z"/><path d="m352 320h-16v-28.68652l-21.65723-21.65674 11.31446-11.31348 24 24a8.00035 8.00035 0 0 1 2.34277 5.65674z"/><circle cx="240" cy="104" r="64"/></g><path d="m352.00391 200a112.01971 112.01971 0 1 1 -16.40991-58.38 112.01615 112.01615 0 0 1 16.40991 58.38z" fill="#eb352f"/><path d="m279.43384 304.85a112.29637 112.29637 0 0 1 -78.85987 0l39.42994-216.85z" fill="#808080"/><path d="m174.92908 222.54262a40.00008 40.00008 0 0 0 32.21422 46.49994l14.2857-78.71416a40 40 0 0 0 -46.49992 32.21422z" fill="#4d4d4d"/><path d="m258.609 190.321 14.30473 78.67071a39.98053 39.98053 0 1 0 -14.30473-78.67071z" fill="#4d4d4d"/><path d="m200.00391 120a32.00573 32.00573 0 0 1 -55.6001 21.62 112.3903 112.3903 0 0 1 47.57007-42.82 31.83577 31.83577 0 0 1 8.03003 21.2z" fill="#4d4d4d"/><path d="m335.594 141.62a31.99934 31.99934 0 0 1 -47.56006-42.82 112.30638 112.30638 0 0 1 47.56006 42.82z" fill="#4d4d4d"/></svg>