<svg id="Flat" height="512" viewBox="0 0 512 512" width="512" xmlns="http://www.w3.org/2000/svg"><path d="m456 136-312 312-59.27 19.76-60.73 20.24 20.24-60.73 19.76-59.27 312-312z" fill="#bc8d5d"/><path d="m77.324 287.029h373.352v33.941h-373.352z" fill="#104f91" transform="matrix(.707 -.707 .707 .707 -137.637 275.716)"/><path d="m49.324 253.373h373.352v45.255h-373.352z" fill="#3ea7ff" transform="matrix(.707 -.707 .707 .707 -126.039 247.716)"/><path d="m21.324 231.029h373.352v33.941h-373.352z" fill="#2b7cd4" transform="matrix(.707 -.707 .707 .707 -114.441 219.716)"/><path d="m358.059 63.431h67.882v113.137h-67.882z" fill="#f2e368" transform="matrix(.707 -.707 .707 .707 29.961 312.333)"/><path d="m412 131.029h16v33.941h-16z" fill="#eacf4d" transform="matrix(.707 -.707 .707 .707 18.363 340.333)"/><path d="m376 100.686h16v22.627h-16z" fill="#eacf4d" transform="matrix(.707 -.707 .707 .707 33.275 304.333)"/><path d="m84.73 467.76a64.08564 64.08564 0 0 0 -40.49-40.49l-20.24 60.73z" fill="#808080"/><path d="m256 168h-24v72l-72-72h-136v-144h232z" fill="#a0cc00"/><g fill="#85b200"><path d="m90.34326 125.65723-24-24a8.00034 8.00034 0 0 1 0-11.31446l24-24 11.31348 11.31446-18.34326 18.34277 18.34326 18.34277z"/><path d="m95.279 88h89.443v16h-89.443z" transform="matrix(.447 -.894 .894 .447 -8.479 178.279)"/><path d="m189.65674 125.65723-11.31348-11.31446 18.34326-18.34277-18.34326-18.34277 11.31348-11.31446 24 24a8.00034 8.00034 0 0 1 0 11.31446z"/></g><path d="m256 432-72-72h72v-32h232v160h-232z" fill="#a0cc00"/><path d="m322.34326 437.65723-24-24a8.00034 8.00034 0 0 1 0-11.31446l24-24 11.31348 11.31446-18.34326 18.34277 18.34326 18.34277z" fill="#85b200"/><path d="m327.279 400h89.443v16h-89.443z" fill="#85b200" transform="matrix(.447 -.894 .894 .447 -159.298 558.235)"/><path d="m421.65674 437.65723-11.31348-11.31446 18.34326-18.34277-18.34326-18.34277 11.31348-11.31446 24 24a8.00034 8.00034 0 0 1 0 11.31446z" fill="#85b200"/><path d="m376 56 80 80 15.71411-15.57381a56.4653 56.4653 0 0 0 .17945-80.03263l-.00008-.00008a56.4653 56.4653 0 0 0 -79.3133-.53348z" fill="#65dcff"/></svg>