<?xml version="1.0" encoding="iso-8859-1"?>
<!-- Generator: Adobe Illustrator 19.0.0, SVG Export Plug-In . SVG Version: 6.00 Build 0)  -->
<svg version="1.1" id="Capa_1" xmlns="http://www.w3.org/2000/svg" xmlns:xlink="http://www.w3.org/1999/xlink" x="0px" y="0px"
	 viewBox="0 0 480 480" style="enable-background:new 0 0 480 480;" xml:space="preserve">
<path style="fill:#F8CF26;" d="M424,352c-22.056,0-40,17.944-40,40v32c0,22.056,17.944,40,40,40s40-17.944,40-40v-32
	C464,369.944,446.056,352,424,352z M432,400h-16v-24h16V400z"/>
<path style="fill:#E0634B;" d="M16,112h352V64H16V112z M96,80h16v16H96V80z M64,80h16v16H64V80z M32,80h16v16H32V80z"/>
<g>
	<polygon style="fill:#3FE7EF;" points="273.712,192 192,160.568 110.288,192 192,223.432 	"/>
	<path style="fill:#3FE7EF;" d="M192,240c-0.976,0-1.944-0.176-2.872-0.528L136,219.04v47.424l56,21l56-21V219.04l-53.128,20.432
		C193.944,239.824,192.976,240,192,240z"/>
</g>
<path style="fill:#F8CF26;" d="M16,320h328c13.232,0,24-10.768,24-24V128H16V320z M85.128,184.528l104-40
	c1.856-0.712,3.888-0.712,5.752,0l104,40c3.08,1.192,5.12,4.16,5.12,7.472s-2.04,6.28-5.128,7.472L264,212.88V272
	c0,3.336-2.072,6.32-5.184,7.496l-64,24C193.904,303.832,192.952,304,192,304s-1.904-0.168-2.816-0.504l-64-24
	C122.072,278.32,120,275.336,120,272v-59.12l-16-6.152V296H88v-95.424l-2.872-1.104C82.04,198.28,80,195.312,80,192
	S82.04,185.72,85.128,184.528z"/>
<path d="M432,336.64V48c0-26.472-21.528-48-48-48s-48,21.528-48,48H8c-4.424,0-8,3.584-8,8v272c0,4.416,3.576,8,8,8h336
	c22.056,0,40-17.944,40-40V56c0-4.416-3.576-8-8-8h-24c0-17.648,14.352-32,32-32s32,14.352,32,32v288.64
	c-27.088,3.904-48,27.208-48,55.36v32c0,30.872,25.128,56,56,56s56-25.128,56-56v-32C480,363.848,459.088,340.544,432,336.64z
	 M368,296c0,13.232-10.768,24-24,24H16V128h352V296z M368,64v48H16V64H368z M464,424c0,22.056-17.944,40-40,40s-40-17.944-40-40v-32
	c0-22.056,17.944-40,40-40s40,17.944,40,40V424z"/>
<rect x="416" y="376" width="16" height="24"/>
<rect x="32" y="80" width="16" height="16"/>
<rect x="64" y="80" width="16" height="16"/>
<rect x="96" y="80" width="16" height="16"/>
<path d="M85.128,199.472L88,200.576V296h16v-89.272l16,6.152V272c0,3.336,2.072,6.32,5.184,7.496l64,24
	c0.912,0.336,1.864,0.504,2.816,0.504s1.904-0.168,2.816-0.504l64-24c3.112-1.176,5.184-4.16,5.184-7.496v-59.12l34.872-13.416
	C301.96,198.28,304,195.312,304,192s-2.04-6.28-5.128-7.472l-104-40c-1.856-0.712-3.888-0.712-5.752,0l-104,40
	C82.04,185.72,80,188.688,80,192S82.04,198.28,85.128,199.472z M248,266.456l-56,21l-56-21V219.04l53.128,20.432
	c0.928,0.352,1.896,0.528,2.872,0.528s1.944-0.176,2.872-0.528L248,219.04V266.456z M192,160.568L273.712,192L192,223.432
	L110.288,192L192,160.568z"/>
<g>
</g>
<g>
</g>
<g>
</g>
<g>
</g>
<g>
</g>
<g>
</g>
<g>
</g>
<g>
</g>
<g>
</g>
<g>
</g>
<g>
</g>
<g>
</g>
<g>
</g>
<g>
</g>
<g>
</g>
</svg>
