<svg id="Flat" height="512" viewBox="0 0 512 512" width="512" xmlns="http://www.w3.org/2000/svg"><path d="m24 24h464v464h-464z" fill="#57c1ff"/><path d="m24 24h464v64h-464z" fill="#3ea7ff"/><circle cx="56" cy="56" fill="#eb352f" r="8"/><circle cx="88" cy="56" fill="#f2e368" r="8"/><circle cx="120" cy="56" fill="#a0cc00" r="8"/><path d="m456 88h32v400h-32z" fill="#a0eaff"/><path d="m456 184h32v48h-32z" fill="#57c1ff"/><path d="m24 88h152v48h280v352h-432z" fill="#65dcff"/><path d="m168 48h176v16h-176z" fill="#65dcff"/><path d="m80 112h72v16h-72z" fill="#808080"/><circle cx="56" cy="120" fill="#eb352f" r="8"/><path d="m384 216v-32h-296v144a32.00409 32.00409 0 0 0 32 32h215.55005c8.60986 0 16.03 6.62012 16.42993 15.23a16.0045 16.0045 0 0 1 -15.97998 16.77h-231.55c-8.60986 0-16.03 6.62012-16.42993 15.23a16.0045 16.0045 0 0 0 15.97993 16.77l232.40991-.58008a47.71 47.71 0 0 0 -.11991-95.41992h-.29v-112zm-224 112h-24a15.99564 15.99564 0 0 1 -16-16v-24h40zm0-72h-40v-40h40zm72 72h-40v-40h40zm0-72h-40v-40h40zm72 72h-40v-40h40zm0-72h-40v-40h40z" fill="#eb352f"/><g fill="#c7161f"><path d="m136 328h-8a15.99564 15.99564 0 0 1 -16-16v-24h8v24a15.99564 15.99564 0 0 0 16 16z"/><path d="m112 216h8v40h-8z"/><path d="m184 216h8v40h-8z"/><path d="m256 216h8v40h-8z"/><path d="m184 288h8v40h-8z"/><path d="m256 288h8v40h-8z"/></g><circle cx="152.1" cy="423.9" fill="#808080" r="32.1"/><circle cx="312.1" cy="423.9" fill="#808080" r="32.1"/><circle cx="392" cy="200" fill="#808080" r="24"/><circle cx="152" cy="424" fill="#4d4d4d" r="8"/><circle cx="312" cy="424" fill="#4d4d4d" r="8"/></svg>