<svg id="Flat" height="512" viewBox="0 0 512 512" width="512" xmlns="http://www.w3.org/2000/svg"><path d="m23.997 24h376v392h-376z" fill="#65dcff"/><path d="m159.997 120h104v48h-104z" fill="#3ea7ff"/><path d="m55.997 200h96v64h-96z" fill="#3ea7ff"/><g fill="#57c1ff"><path d="m255.997 192h88v16h-88z"/><path d="m207.997 192h32v16h-32z"/><path d="m175.997 224h168v16h-168z"/><path d="m175.997 256h104v16h-104z"/><path d="m239.997 296h16v16h-16z"/><path d="m191.997 296h32v16h-32z"/><path d="m175.997 328h56v16h-56z"/></g><path d="m55.997 304h96v64h-96z" fill="#3ea7ff"/><path d="m23.997 24h376v64h-376z" fill="#3ea7ff"/><circle cx="55.997" cy="56" fill="#eb352f" r="8"/><circle cx="87.997" cy="56" fill="#f2e368" r="8"/><circle cx="119.997" cy="56" fill="#a0cc00" r="8"/><path d="m367.997 88h32v328h-32z" fill="#a0eaff"/><path d="m367.997 152h32v48h-32z" fill="#57c1ff"/><path d="m424 400v-32h-18.77a49.22117 49.22117 0 0 0 -1.93-4.67l13.27-13.27-22.63-22.63-3.09 3.09-10.18 10.18q-2.27994-1.08-4.67-1.93v-18.77h-32v18.77a49.22694 49.22694 0 0 0 -4.67 1.93l-13.27-13.27-22.63 22.63 13.27 13.27a44.47335 44.47335 0 0 0 -1.93 4.67h-18.77v32h18.77a44.47767 44.47767 0 0 0 1.93 4.67l-13.27 13.27 22.63 22.63 4.06-4.07 9.21-9.2a49.24233 49.24233 0 0 0 4.67 1.93v18.77h32v-18.77q2.385-.855 4.67-1.93l13.27 13.27 22.63-22.63-13.27-13.27a49.22657 49.22657 0 0 0 1.93-4.67zm-64.23.23a16 16 0 1 1 16-16 15.99555 15.99555 0 0 1 -16 16z" fill="#808080"/><path d="m360 480a96.143 96.143 0 0 1 -95.24335-83.92987l9.58661 9.58661 11.31348-11.31348-24-24a8 8 0 0 0 -11.31348 0l-24 24 11.31348 11.31348 10.86529-10.8653a112.01542 112.01542 0 0 0 210.85688 40.90631l-14.18848-7.3955a95.78248 95.78248 0 0 1 -85.19043 51.69775z" fill="#ff6f35"/><path d="m482.34326 370.34326-10.39426 10.39423a112.01584 112.01584 0 0 0 -215.36209-39.81659l14.76758 6.1582a96.01393 96.01393 0 0 1 184.57951 33.54144l-10.27728-10.27728-11.31348 11.31348 24 24a7.99945 7.99945 0 0 0 11.31348 0l24-24z" fill="#ff6f35"/></svg>