<svg id="Flat" height="512" viewBox="0 0 512 512" width="512" xmlns="http://www.w3.org/2000/svg"><path d="m24 24h464v464h-464z" fill="#57c1ff"/><path d="m24 24h464v64h-464z" fill="#3ea7ff"/><circle cx="56" cy="56" fill="#eb352f" r="8"/><circle cx="88" cy="56" fill="#f2e368" r="8"/><circle cx="120" cy="56" fill="#a0cc00" r="8"/><path d="m456 88h32v400h-32z" fill="#a0eaff"/><path d="m456 152h32v48h-32z" fill="#57c1ff"/><path d="m24 88h152v32h280v368h-432z" fill="#65dcff"/><path d="m168 48h176v16h-176z" fill="#65dcff"/><path d="m80 112h72v16h-72z" fill="#808080"/><circle cx="56" cy="120" fill="#eb352f" r="8"/><path d="m72 456a168 168 0 0 1 336 0z" fill="#3ea7ff"/><path d="m375.98 456h-135.98l96.15-96.1499a135.54412 135.54412 0 0 1 39.83 96.1499z" fill="#eb352f"/><path d="m336.15 359.8501-96.15 96.1499v-135.98a135.54422 135.54422 0 0 1 96.15 39.8301z" fill="#ff6f35"/><path d="m240 320.02v135.98l-96.15-96.1499a135.54443 135.54443 0 0 1 96.15-39.8301z" fill="#f2e368"/><path d="m240 456h-135.98a135.54412 135.54412 0 0 1 39.83-96.1499z" fill="#a0cc00"/><path d="m280 448v8h-80v-8a40 40 0 0 1 80 0z" fill="#e6e6e6"/><path d="m302.06 405.25-25.82 25.82-24.92 24.93h-22.64l37.89-37.88 24.18-24.18z" fill="#808080"/><path d="m64 176h128v16h-128z" fill="#57c1ff"/><path d="m88 208h80v16h-80z" fill="#57c1ff"/><path d="m360 152h64v64h-64z" fill="#a0cc00"/><path d="m360 216h64v64h-64z" fill="#85b200"/><g fill="#57c1ff"><path d="m304 240h32v16h-32z"/><path d="m304 176h32v16h-32z"/><path d="m256 240h32v16h-32z"/><path d="m256 176h32v16h-32z"/></g><path d="m384 176h16v16h-16z" fill="#85b200"/><path d="m384 240h16v16h-16z" fill="#719600"/></svg>