<svg id="a7bd42df-0eaf-4f58-b315-9606670bfe25" xmlns="http://www.w3.org/2000/svg" viewBox="0 0 1200 514.27"><defs><style>.cls-1{fill:#6c63ff;}.cls-2{opacity:0.1;isolation:isolate;}.cls-3{fill:#6b6b87;}.cls-4{fill:#3f3d56;}</style></defs><title>functions</title><path class="cls-1" d="M1200,0V514.27H986.44q-4.53,0-9.06,0l-2.16,0q-3.68,0-7.35-.12-11.25-.21-22.46-.66c-124.91-5-246.54-33-355.85-80.87C328.79,318.45,0,369.34,0,369.34V0Z"/><polygon class="cls-2" points="252.36 0 188.27 44 117.04 92.9 109.4 98.15 51 138.24 0 173.25 0 82.56 23 66.77 27.89 63.41 51 47.55 56.16 44 120.26 0 252.36 0"/><polygon class="cls-2" points="425 0 324 69.34 227.04 135.9 219.4 141.15 212.33 146 0 291.76 0 201.06 80.22 146 133 109.77 137.89 106.41 228.8 44 292.9 0 425 0"/><rect class="cls-3" x="860" y="191" width="44" height="116"/><rect class="cls-3" x="941" y="236" width="44" height="71"/><rect class="cls-3" x="1022" y="143" width="44" height="164"/><circle class="cls-3" cx="963" cy="191" r="22"/><polygon class="cls-4" points="161.5 72.5 213.5 95.5 161.5 117.5 161.5 72.5"/><circle class="cls-4" cx="521" cy="284.5" r="11"/><circle class="cls-4" cx="555" cy="284.5" r="11"/><circle class="cls-4" cx="589" cy="284.5" r="11"/><path class="cls-4" d="M685.9,110.13a12,12,0,1,1,12,12A12,12,0,0,1,685.9,110.13Zm2,0a10,10,0,1,0,10-10A10,10,0,0,0,687.9,110.13Z"/><path class="cls-4" d="M825.58,431.87l-17.66-17.48,18.94-16.3,17.66,17.48Zm-14.85-17.39,14.95,14.79,16-13.79-14.94-14.8Z"/><path class="cls-4" d="M357.58,222.87l-17.66-18.94,18.94-17.66,17.66,18.94ZM342.73,204l14.95,16,16-14.95-14.94-16Z"/></svg>